<svg width="56" height="52" viewBox="0 0 56 52" fill="none" xmlns="http://www.w3.org/2000/svg">
<path d="M23.2342 7.59789H17.92V5.14898H15.9426V19.2773H18.1054V24.4263H5.12883V19.2773H7.29159V5.14898H5.31421V7.59789H0V0H23.2342V7.59789Z" fill="white"/>
<path d="M37.5394 21.4122V26.5612H29.3827V24.4263C28.9295 25.096 28.291 25.6926 27.4671 26.2159C26.6638 26.7391 25.6751 27.0008 24.501 27.0008C22.9562 27.0008 21.7409 26.5821 20.8552 25.7449C19.9695 24.9077 19.5267 23.7251 19.5267 22.1971C19.5267 18.2412 22.8326 16.2109 29.4445 16.1063C29.3827 15.3946 29.1149 14.9132 28.6411 14.662C28.1674 14.3899 27.3641 14.2539 26.2312 14.2539C25.3043 14.2539 24.3053 14.3585 23.2342 14.5679C22.1838 14.7562 21.2157 15.0179 20.33 15.3528V9.57585C21.4216 9.30375 22.606 9.08398 23.8831 8.91653C25.1601 8.74909 26.4063 8.66536 27.6216 8.66536C30.6906 8.66536 32.8843 9.23049 34.2025 10.3608C35.5208 11.491 36.1799 13.2387 36.1799 15.6039V21.4122H37.5394ZM29.3827 19.2145C28.4558 19.2145 27.7348 19.3401 27.2199 19.5912C26.7256 19.8424 26.4784 20.261 26.4784 20.8471C26.4784 21.2029 26.5814 21.4959 26.7874 21.7262C27.0139 21.9355 27.3229 22.0401 27.7142 22.0401C28.2498 22.0401 28.6617 21.8099 28.9501 21.3494C29.2385 20.889 29.3827 20.2401 29.3827 19.4029V19.2145Z" fill="white"/>
<path d="M46.5894 27.0008C43.9941 27.0008 41.4915 26.5821 39.0815 25.7449V21.0983H44.0868V21.4122C44.0868 22.4169 44.715 22.9192 45.9715 22.9192C47.0837 22.9192 47.6399 22.532 47.6399 21.7576C47.6399 21.339 47.4751 21.025 47.1455 20.8157C46.8366 20.6064 46.2804 20.4285 45.4771 20.282L43.9323 19.9994C40.6984 19.4133 39.0815 17.5505 39.0815 14.4109C39.0815 12.5899 39.7612 11.1771 41.1207 10.1724C42.4801 9.1677 44.3133 8.66536 46.6203 8.66536C49.195 8.66536 51.3681 9.1049 53.1395 9.984V14.3481H48.4432V14.0341C48.4432 13.6155 48.299 13.3015 48.0106 13.0922C47.7429 12.862 47.3412 12.7469 46.8057 12.7469C45.7758 12.7469 45.2608 13.0818 45.2608 13.7515C45.2608 14.1074 45.405 14.3795 45.6934 14.5679C45.9818 14.7562 46.507 14.9341 47.2691 15.1016L49.0302 15.4469C50.8634 15.8028 52.1714 16.4621 52.9541 17.4249C53.7368 18.3877 54.1282 19.6226 54.1282 21.1297C54.1282 23.0344 53.469 24.4891 52.1508 25.4937C50.8531 26.4984 48.9993 27.0008 46.5894 27.0008Z" fill="white"/>
<path d="M23.9372 45.0708H25.2657V50.2198H17.696L14.5137 44.1917H13.7722V50.2198H5.30652V45.0708H6.66597V30.9425H5.30652V25.7935H13.7722V38.5404H14.5137L18.3449 32.7635H24.864V37.9125H23.5973L20.9711 40.8951L23.9372 45.0708Z" fill="white"/>
<path d="M34.2952 50.2198C31.6999 50.2198 29.1973 49.8012 26.7874 48.9639V44.3173H31.7926V44.6313C31.7926 45.6359 32.4208 46.1383 33.6773 46.1383C34.7896 46.1383 35.3457 45.7511 35.3457 44.9766C35.3457 44.558 35.1809 44.244 34.8514 44.0347C34.5424 43.8254 33.9863 43.6475 33.1829 43.501L31.6381 43.2184C28.4043 42.6324 26.7874 40.7695 26.7874 37.6299C26.7874 35.8089 27.4671 34.3961 28.8265 33.3914C30.186 32.3867 32.0192 31.8844 34.3261 31.8844C36.9008 31.8844 39.0739 32.3239 40.8453 33.203V37.5671H36.149V37.2532C36.149 36.8345 36.0048 36.5206 35.7165 36.3112C35.4487 36.081 35.047 35.9659 34.5115 35.9659C33.4816 35.9659 32.9667 36.3008 32.9667 36.9706C32.9667 37.3264 33.1108 37.5985 33.3992 37.7869C33.6876 37.9753 34.2128 38.1532 34.9749 38.3206L36.736 38.666C38.5692 39.0218 39.8772 39.6811 40.6599 40.6439C41.4426 41.6068 41.834 42.8417 41.834 44.3487C41.834 46.2534 41.1749 47.7081 39.8566 48.7128C38.5589 49.7174 36.7051 50.2198 34.2952 50.2198Z" fill="white"/>
<path d="M47.9604 28.3633C44.8005 28.3633 42.2391 30.9744 42.2391 34.1954C42.2391 37.4163 44.8005 40.028 47.9604 40.028C51.12 40.028 53.6817 37.4165 53.6817 34.1954C53.6817 30.9745 51.12 28.3633 47.9604 28.3633ZM48.3562 34.9013C48.3562 34.9039 48.3554 34.9061 48.3554 34.9086C48.3548 34.924 48.3532 34.9393 48.3507 34.9545C48.3493 34.9661 48.3485 34.9779 48.346 34.9891C48.343 35.001 48.3394 35.0128 48.3352 35.0243C48.3311 35.0385 48.3263 35.0525 48.3209 35.0662C48.3198 35.0685 48.3195 35.071 48.3184 35.0733C48.31 35.0917 48.3001 35.1094 48.2889 35.1262C48.288 35.1273 48.2872 35.1284 48.2867 35.1293C48.2741 35.1476 48.2602 35.1649 48.245 35.181C48.2409 35.1853 48.2364 35.1892 48.232 35.1931C48.2191 35.206 48.2053 35.2179 48.1906 35.2286C48.1859 35.2317 48.1815 35.2353 48.1768 35.2384C48.158 35.2512 48.1382 35.2622 48.1175 35.2713C48.1131 35.2733 48.1084 35.2747 48.1039 35.2764C48.0866 35.2832 48.0688 35.2887 48.0507 35.293C48.0441 35.2947 48.0377 35.2964 48.0311 35.2975C48.0077 35.3021 47.984 35.3045 47.9601 35.3048C47.9552 35.3048 47.9505 35.3031 47.9455 35.3031C47.9228 35.3026 47.9002 35.3001 47.8779 35.2955C47.871 35.2941 47.8644 35.2911 47.8575 35.2891C47.8372 35.2837 47.8174 35.2769 47.7981 35.2685C47.7962 35.2674 47.7937 35.2674 47.7915 35.2663L45.598 34.2114C45.551 34.1888 45.5088 34.157 45.4739 34.1178C45.4389 34.0786 45.4119 34.0327 45.3944 33.9829C45.3589 33.8822 45.3641 33.7713 45.4089 33.6745C45.4311 33.6266 45.4623 33.5836 45.5007 33.548C45.5392 33.5124 45.5842 33.4849 45.6331 33.467C45.7318 33.4308 45.8406 33.4362 45.9355 33.4818L47.5646 34.2651V30.7837C47.5646 30.6767 47.6063 30.574 47.6805 30.4984C47.7548 30.4227 47.8554 30.3802 47.9604 30.3802C48.0654 30.3802 48.1661 30.4227 48.2403 30.4984C48.3145 30.574 48.3562 30.6767 48.3562 30.7837L48.3562 34.9013Z" fill="#01C816"/>
</svg>
