<svg width="101" height="92" viewBox="0 0 101 92" fill="none" xmlns="http://www.w3.org/2000/svg">
<path d="M41.9046 13.4424H32.32V9.10974H28.7537V34.106H32.6543V43.2157H9.25021V34.106H13.1509V9.10974H9.58455V13.4424H0V0H41.9046V13.4424Z" fill="black"/>
<path d="M67.7049 37.8832V46.9929H52.9937V43.2157C52.1764 44.4007 51.0248 45.4561 49.5388 46.3819C48.09 47.3077 46.3068 47.7706 44.1893 47.7706C41.4031 47.7706 39.2113 47.0299 37.6139 45.5487C36.0164 44.0674 35.2177 41.9752 35.2177 39.2719C35.2177 32.2729 41.1802 28.6809 53.1052 28.4957C52.9937 27.2366 52.5108 26.3849 51.6563 25.9405C50.8019 25.4591 49.3531 25.2184 47.3099 25.2184C45.6382 25.2184 43.8364 25.4036 41.9046 25.7739C40.01 26.1072 38.264 26.5701 36.6665 27.1626V16.9419C38.6355 16.4605 40.7716 16.0717 43.0748 15.7754C45.3781 15.4792 47.6256 15.331 49.8175 15.331C55.3527 15.331 59.3091 16.3309 61.6867 18.3306C64.0643 20.3303 65.253 23.4224 65.253 27.607V37.8832H67.7049ZM52.9937 33.9949C51.322 33.9949 50.0218 34.217 49.093 34.6614C48.2015 35.1058 47.7557 35.8464 47.7557 36.8833C47.7557 37.5129 47.9414 38.0313 48.3129 38.4386C48.7215 38.809 49.2788 38.9941 49.9846 38.9941C50.9505 38.9941 51.6935 38.5868 52.2136 37.7721C52.7337 36.9574 52.9937 35.8094 52.9937 34.3282V33.9949Z" fill="black"/>
<path d="M84.0273 47.7706C79.3465 47.7706 74.8328 47.0299 70.4863 45.5487V37.3277H79.5136V37.8832C79.5136 39.6607 80.6467 40.5494 82.9128 40.5494C84.9189 40.5494 85.9219 39.8643 85.9219 38.4942C85.9219 37.7536 85.6247 37.1981 85.0303 36.8278C84.4731 36.4575 83.47 36.1427 82.0212 35.8835L79.235 35.3835C73.4025 34.3467 70.4863 31.0509 70.4863 25.4961C70.4863 22.2744 71.7122 19.7748 74.1641 17.9973C76.616 16.2198 79.9223 15.331 84.083 15.331C88.7267 15.331 92.646 16.1087 95.8408 17.664V25.3851H87.3707V24.8296C87.3707 24.089 87.1107 23.5335 86.5906 23.1631C86.1077 22.7558 85.3832 22.5521 84.4174 22.5521C82.5599 22.5521 81.6311 23.1447 81.6311 24.3297C81.6311 24.9592 81.8912 25.4406 82.4113 25.7739C82.9314 26.1072 83.8787 26.4219 85.2532 26.7182L88.4295 27.3292C91.7358 27.9587 94.0948 29.1252 95.5065 30.8287C96.9182 32.5321 97.624 34.717 97.624 37.3832C97.624 40.7531 96.4352 43.3268 94.0577 45.1043C91.7172 46.8818 88.3738 47.7706 84.0273 47.7706Z" fill="black"/>
<path d="M43.1724 79.7407H45.5685V88.8504H31.9161L26.1765 78.1853H24.8391V88.8504H9.57069V79.7407H12.0225V54.7444H9.57069V45.6347H24.8391V68.1869H26.1765L33.0863 57.9662H44.8441V67.0759H42.5594L37.8228 72.3529L43.1724 79.7407Z" fill="black"/>
<path d="M61.8539 88.8504C57.173 88.8504 52.6594 88.1098 48.3129 86.6285V78.4075H57.3402V78.963C57.3402 80.7405 58.4733 81.6293 60.7394 81.6293C62.7455 81.6293 63.7485 80.9442 63.7485 79.574C63.7485 78.8334 63.4513 78.2779 62.8569 77.9076C62.2997 77.5373 61.2966 77.2225 59.8478 76.9633L57.0616 76.4634C51.2291 75.4265 48.3129 72.1307 48.3129 66.576C48.3129 63.3542 49.5388 60.8546 51.9907 59.0771C54.4426 57.2996 57.7489 56.4109 61.9096 56.4109C66.5533 56.4109 70.4725 57.1885 73.6674 58.7438V66.4649H65.1973V65.9094C65.1973 65.1688 64.9373 64.6133 64.4172 64.243C63.9342 63.8356 63.2098 63.632 62.2439 63.632C60.3865 63.632 59.4577 64.2245 59.4577 65.4095C59.4577 66.039 59.7178 66.5204 60.2379 66.8537C60.758 67.187 61.7053 67.5018 63.0798 67.798L66.2561 68.409C69.5624 69.0386 71.9214 70.2051 73.333 71.9085C74.7447 73.612 75.4506 75.7968 75.4506 78.4631C75.4506 81.8329 74.2618 84.4066 71.8842 86.1841C69.5438 87.9616 66.2004 88.8504 61.8539 88.8504Z" fill="black"/>
<path d="M86.5 50.1812C80.801 50.1812 76.1812 54.801 76.1812 60.4995C76.1812 66.1981 80.801 70.8188 86.5 70.8188C92.1985 70.8188 96.8188 66.1985 96.8188 60.4996C96.8188 54.801 92.1985 50.1812 86.5 50.1812ZM87.2139 61.7485C87.2139 61.753 87.2124 61.757 87.2124 61.7615C87.2113 61.7887 87.2085 61.8158 87.2039 61.8426C87.2014 61.8631 87.1999 61.884 87.1955 61.9038C87.1901 61.9249 87.1836 61.9457 87.176 61.9661C87.1687 61.9912 87.16 62.016 87.1501 62.0402C87.1482 62.0442 87.1476 62.0487 87.1457 62.0527C87.1305 62.0853 87.1127 62.1166 87.0924 62.1463C87.0909 62.1483 87.0895 62.1503 87.0885 62.1518C87.0658 62.1843 87.0407 62.2149 87.0133 62.2434C87.0058 62.2509 86.9979 62.2578 86.9899 62.2648C86.9666 62.2876 86.9417 62.3085 86.9152 62.3275C86.9068 62.333 86.8988 62.3394 86.8903 62.345C86.8565 62.3675 86.8207 62.387 86.7833 62.4032C86.7753 62.4067 86.7668 62.4091 86.7589 62.4121C86.7276 62.4241 86.6955 62.4339 86.6628 62.4415C86.6509 62.4445 86.6394 62.4475 86.6275 62.4494C86.5853 62.4575 86.5425 62.4619 86.4995 62.4624C86.4906 62.4624 86.4821 62.4594 86.4732 62.4594C86.4322 62.4585 86.3914 62.454 86.3512 62.446C86.3387 62.4435 86.3268 62.438 86.3143 62.4345C86.2778 62.4251 86.242 62.4129 86.2073 62.3982C86.2038 62.3962 86.1994 62.3962 86.1954 62.3942L82.2392 60.5279C82.1545 60.4879 82.0784 60.4316 82.0154 60.3622C81.9524 60.2929 81.9037 60.2118 81.872 60.1236C81.808 59.9455 81.8175 59.7492 81.8982 59.578C81.9382 59.4933 81.9945 59.4172 82.0638 59.3542C82.1332 59.2912 82.2143 59.2425 82.3025 59.2108C82.4806 59.1469 82.6769 59.1563 82.848 59.237L85.7862 60.6229V54.4635C85.7862 54.2741 85.8614 54.0925 85.9953 53.9587C86.1291 53.8248 86.3107 53.7496 86.5 53.7496C86.6894 53.7496 86.8709 53.8248 87.0048 53.9587C87.1387 54.0925 87.2139 54.2741 87.2139 54.4635L87.2139 61.7485Z" fill="#00620A" fill-opacity="0.96"/>
</svg>
